<svg width="48" height="48" viewBox="0 0 48 48" fill="none" xmlns="http://www.w3.org/2000/svg">
<circle cx="23" cy="23" r="23" fill="#FCFCFC" fill-opacity="0.23"/>
<path fill-rule="evenodd" clip-rule="evenodd" d="M26.6386 13.5498C25.5958 13.6892 24.4945 13.891 23.2758 14.1505C22.0564 13.8916 20.9559 13.6885 19.913 13.5498C20.8789 13.9056 21.858 14.3477 22.8961 14.8362C23.1284 14.9457 23.2758 15.1794 23.2758 15.4356C23.2759 15.31 23.3116 15.187 23.3788 15.0809C23.4461 14.9748 23.542 14.89 23.6555 14.8362C24.6937 14.3477 25.6734 13.9056 26.6386 13.5498ZM23.2758 30.8641C23.2758 31.3513 22.7673 31.6719 22.3233 31.4715C19.1238 30.0231 16.4268 29.2425 12.8105 29.9023C12.3896 29.9793 11.9914 29.664 11.9914 29.2365V13.8405C11.5134 13.9368 11.0183 14.0463 10.5025 14.1711C10.359 14.206 10.2314 14.2881 10.1402 14.4043C10.0491 14.5205 9.9997 14.664 10 14.8117V31.7642C10 32.1844 10.387 32.4977 10.7992 32.4194C14.9233 31.6328 17.7026 31.5777 21.5008 32.1538C21.6674 32.4814 21.9214 32.7565 22.2347 32.9486C22.548 33.1407 22.9083 33.2424 23.2758 33.2424C23.6433 33.2424 24.0036 33.1407 24.3169 32.9486C24.6302 32.7565 24.8842 32.4814 25.0508 32.1538C28.8483 31.5777 31.629 31.6328 35.7524 32.4194C35.8493 32.4381 35.9491 32.4352 36.0447 32.411C36.1403 32.3868 36.2295 32.3419 36.3058 32.2793C36.382 32.2168 36.4436 32.1382 36.4861 32.0492C36.5286 31.9601 36.551 31.8629 36.5516 31.7642V14.8117C36.5519 14.664 36.5025 14.5205 36.4114 14.4043C36.3202 14.2881 36.1926 14.206 36.0491 14.1711C35.555 14.0514 35.0586 13.9412 34.5602 13.8405V29.2365C34.5602 29.664 34.162 29.9793 33.7411 29.9023C30.1248 29.2425 27.4278 30.0231 24.229 31.4715C23.7843 31.6719 23.2758 31.352 23.2758 30.8641Z" fill="#FCFCFC"/>
<path fill-rule="evenodd" clip-rule="evenodd" d="M12.6552 13.6839V29.2372L12.6598 29.2418C12.6642 29.2454 12.6693 29.248 12.6748 29.2493C12.6804 29.2507 12.6861 29.2509 12.6917 29.2498C16.4952 28.5548 19.3382 29.3918 22.5968 30.8661C22.5984 30.867 22.6002 30.8677 22.6021 30.8681C22.6047 30.8678 22.6078 30.8669 22.61 30.8654C22.6107 30.865 22.6114 30.8646 22.612 30.8641V15.4363C19.0826 13.7742 16.4109 12.7446 12.6552 13.6839ZM12.3126 12.4014C16.5569 11.3334 19.6011 12.5514 23.1789 14.2361C23.4064 14.3434 23.5987 14.5131 23.7334 14.7255C23.868 14.9378 23.9396 15.1841 23.9396 15.4356V30.8648C23.9396 31.8458 22.9227 32.4711 22.0498 32.0768C18.9101 30.6557 16.3584 29.9301 12.9293 30.5561C12.1241 30.7021 11.3276 30.1014 11.3276 29.2365V13.6752C11.3276 13.0878 11.7186 12.5514 12.3126 12.4014Z" fill="#FCFCFC"/>
<path fill-rule="evenodd" clip-rule="evenodd" d="M33.8965 13.6839V29.2372C33.8913 29.2429 33.8846 29.2471 33.8772 29.2491C33.8717 29.2503 33.8661 29.2503 33.8606 29.2491C30.0558 28.5548 27.2134 29.3918 23.9549 30.8668C23.9532 30.8675 23.9514 30.8679 23.9496 30.8681C23.947 30.8678 23.9438 30.8669 23.9416 30.8654L23.9396 30.8648V15.4356C27.469 13.7735 30.1407 12.7446 33.8965 13.6839ZM34.239 12.4014C29.9947 11.3334 26.9506 12.5514 23.3727 14.2361C23.1452 14.3436 22.953 14.5134 22.8183 14.7259C22.6836 14.9384 22.6121 15.1847 22.612 15.4363V30.8641C22.612 31.8452 23.6289 32.4711 24.5018 32.0768C27.6416 30.6557 30.1938 29.9301 33.6223 30.5561C34.4275 30.7021 35.224 30.1014 35.224 29.2365V13.6752C35.224 13.0878 34.8331 12.5514 34.239 12.4014Z" fill="#FCFCFC"/>
<path fill-rule="evenodd" clip-rule="evenodd" d="M28.5861 15.9826C28.7622 15.9826 28.931 16.0525 29.0555 16.177C29.18 16.3015 29.2499 16.4703 29.2499 16.6464V21.9567C29.2499 22.1327 29.18 22.3016 29.0555 22.4261C28.931 22.5506 28.7622 22.6205 28.5861 22.6205C28.4101 22.6205 28.2412 22.5506 28.1168 22.4261C27.9923 22.3016 27.9223 22.1327 27.9223 21.9567V16.6464C27.9223 16.4703 27.9923 16.3015 28.1168 16.177C28.2412 16.0525 28.4101 15.9826 28.5861 15.9826Z" fill="#FCFCFC"/>
<path fill-rule="evenodd" clip-rule="evenodd" d="M28.9579 19.5272C28.2742 19.7064 27.5573 20.0164 26.5802 20.5481C26.426 20.6271 26.2472 20.6427 26.0817 20.5916C25.9163 20.5405 25.7773 20.4268 25.6945 20.2747C25.6117 20.1227 25.5916 19.9442 25.6385 19.7776C25.6854 19.6109 25.7956 19.4691 25.9456 19.3825C26.9658 18.8269 27.7896 18.4612 28.6206 18.2428C29.457 18.0237 30.2682 17.962 31.2506 17.9759C31.4266 17.9784 31.5945 18.0507 31.7172 18.1769C31.84 18.3032 31.9076 18.473 31.9051 18.649C31.9026 18.8251 31.8303 18.9929 31.7041 19.1157C31.5779 19.2384 31.4081 19.306 31.232 19.3035C30.318 19.2902 29.6376 19.3487 28.9579 19.5272ZM14.9851 24.9438C16.9207 24.9252 17.9954 25.1077 20.0511 25.8956L20.5264 24.6557C18.3226 23.8113 17.0826 23.5956 14.9718 23.6162L14.9851 24.9438ZM14.9851 21.6248C16.9207 21.6062 17.9954 21.7888 20.0511 22.5767L20.5264 21.3367C18.3226 20.4924 17.0826 20.2766 14.9718 20.2972L14.9851 21.6248ZM14.9851 18.3058C16.9207 18.2873 17.9954 18.4698 20.0511 19.2577L20.5264 18.0178C18.3226 17.1734 17.0826 16.9577 14.9718 16.9783L14.9851 18.3058Z" fill="#FCFCFC"/>
</svg>
