<svg id="Layer_1" data-name="Layer 1" xmlns="http://www.w3.org/2000/svg" viewBox="0 0 849.04 234.37"><defs><style>.cls-1,.cls-19{fill:#5a85c4;}.cls-2{fill:#ea443c;}.cls-3{fill:#e8443b;}.cls-4{fill:#e8453c;}.cls-5{fill:#30a952;}.cls-6{fill:#5881c1;}.cls-7{fill:#e9453c;}.cls-8{fill:#f9bb17;}.cls-9{fill:#fff;}.cls-10{fill:#fff7f6;}.cls-11{fill:#fdefec;}.cls-12{fill:#fdf2f0;}.cls-13{fill:#fff3f1;}.cls-14{fill:#fff6f4;}.cls-15{fill:#fdf0ed;}.cls-16{fill:#fdeeeb;}.cls-17{fill:#ea4e45;}.cls-18{fill:#e94a40;}.cls-19{font-size:24.05px;font-family:Poppins-Regular, Poppins;}</style></defs><path class="cls-1" d="M197.36,435.15V492.2h-5.78c-5.09,0-9.21-3.59-9.21-8v-34.3l-18,38.14a7.84,7.84,0,0,1-7.17,4.18h0a9.31,9.31,0,0,1-8.51-4.95l-17.77-37.37v34.3c0,4.43-4.12,8-9.21,8h-5.78V435.15c0-4.43,4.12-8,9.21-8h7.81l23.77,48.38,23.76-48.38h7.71C193.24,427.13,197.36,430.72,197.36,435.15Z" transform="translate(-115.89 -423.22)"/><path class="cls-1" d="M211.86,452.3a24.42,24.42,0,0,1,9.75-9.32,28.81,28.81,0,0,1,13.75-3.26A27.05,27.05,0,0,1,247,442.05a23,23,0,0,1,8,5.87v-7.37h5.89c5.09,0,9.21,3.59,9.21,8V492.2h-6.43c-4.79,0-8.67-3.38-8.67-7.55h0a21.59,21.59,0,0,1-8,6A27.33,27.33,0,0,1,235.25,493a28,28,0,0,1-13.64-3.36,24.9,24.9,0,0,1-9.75-9.46,27.19,27.19,0,0,1-3.58-14A26.76,26.76,0,0,1,211.86,452.3Zm40.95,5.92A14.15,14.15,0,0,0,247,453a17.28,17.28,0,0,0-7.81-1.82,16.94,16.94,0,0,0-7.71,1.77,14.28,14.28,0,0,0-7.92,13.24,15,15,0,0,0,2.19,8.16,14.74,14.74,0,0,0,5.78,5.36,16.39,16.39,0,0,0,7.66,1.86,17.27,17.27,0,0,0,7.81-1.81,14.24,14.24,0,0,0,5.78-5.23,16.61,16.61,0,0,0,0-16.31Z" transform="translate(-115.89 -423.22)"/><path class="cls-1" d="M317.06,489.18l-17.36-19v14c0,4.43-4.12,8-9.21,8h-5.78v-61c0-4.42,4.13-8,9.21-8h5.78v39.24l17.15-18.86a9.78,9.78,0,0,1,7.22-3.05h15L313,466.47l26.33,25.73H324.26A9.78,9.78,0,0,1,317.06,489.18Z" transform="translate(-115.89 -423.22)"/><path class="cls-1" d="M396.55,470.29h-38a12.23,12.23,0,0,0,4.5,8.77,15.11,15.11,0,0,0,9.74,3.16q8.35,0,11.88-6.24h9c3.66,0,5.87,3.54,3.87,6.2a25.87,25.87,0,0,1-6.56,6.06q-7.29,4.8-17.88,4.8a34.58,34.58,0,0,1-15.36-3.31,25.25,25.25,0,0,1-10.6-9.37,25.79,25.79,0,0,1-3.8-14,26.2,26.2,0,0,1,3.75-14.08A24.59,24.59,0,0,1,357.62,443a38.18,38.18,0,0,1,30.67-.09,23.85,23.85,0,0,1,14.08,22.37v.05C402.36,468.08,399.72,470.29,396.55,470.29Zm-9.71-8.76a9.83,9.83,0,0,0-4.17-8.06,16.2,16.2,0,0,0-10-3,14.88,14.88,0,0,0-9.36,2.93,12.4,12.4,0,0,0-4.66,8.16Z" transform="translate(-115.89 -423.22)"/><path class="cls-1" d="M484.58,479.8H454.82L451,489.5a4.6,4.6,0,0,1-4.35,2.7H440.7c-3.18,0-5.41-2.75-4.33-5.36l22.47-54.49a9.23,9.23,0,0,1,8.67-5.31h11l24.66,59.8c1.08,2.61-1.15,5.36-4.33,5.36h-6a4.59,4.59,0,0,1-4.35-2.7Zm-4.07-10.44L469.7,442.14l-10.81,27.22Z" transform="translate(-115.89 -423.22)"/><path class="cls-1" d="M542.23,442.37a33.68,33.68,0,0,1,13.6-11.84,43.23,43.23,0,0,1,19.32-4.24,42.14,42.14,0,0,1,21.94,5.6,30.46,30.46,0,0,1,10.16,9.54c1.74,2.64-.55,5.93-4,5.93h-7.48a4.86,4.86,0,0,1-3.93-1.93,16.27,16.27,0,0,0-6-5.06A23.77,23.77,0,0,0,575,438a24.6,24.6,0,0,0-11.61,2.66,19.38,19.38,0,0,0-7.93,7.5,24.18,24.18,0,0,0,0,22.7,19.3,19.3,0,0,0,7.93,7.55A24.72,24.72,0,0,0,575,481.11a23.39,23.39,0,0,0,10.76-2.38,16.6,16.6,0,0,0,6-5.11,4.86,4.86,0,0,1,3.93-1.93h7.51c3.49,0,5.77,3.27,4.06,5.92a30.19,30.19,0,0,1-10.15,9.6q-9.37,5.55-22,5.55a43.1,43.1,0,0,1-19.32-4.24,33.79,33.79,0,0,1-13.6-11.79,32.12,32.12,0,0,1,0-34.36Z" transform="translate(-115.89 -423.22)"/><path class="cls-1" d="M668.5,442.37a19,19,0,0,1,8.19,7.55,23.2,23.2,0,0,1,2.94,12v26.29a4.33,4.33,0,0,1-4.6,4H664.65V463.67q0-6.15-3.54-9.46t-9.63-3.31q-6.21,0-9.8,3.31t-3.58,9.46v24.52c0,2.22-2.07,4-4.61,4H623.11v-61c0-4.42,4.12-8,9.2-8h5.79V447a19.23,19.23,0,0,1,7.7-5.27,28.92,28.92,0,0,1,10.71-1.91A27,27,0,0,1,668.5,442.37Z" transform="translate(-115.89 -423.22)"/><path class="cls-1" d="M693.6,452.3a24.42,24.42,0,0,1,9.75-9.32,28.81,28.81,0,0,1,13.75-3.26,27.05,27.05,0,0,1,11.62,2.33,23,23,0,0,1,8,5.87v-7.37h5.89c5.09,0,9.21,3.59,9.21,8v35.61c0,4.43-4.12,8-9.21,8h-5.89v-7.55a21.59,21.59,0,0,1-8,6A27.33,27.33,0,0,1,717,493a28,28,0,0,1-13.64-3.36,24.9,24.9,0,0,1-9.75-9.46,27.19,27.19,0,0,1-3.58-14A26.76,26.76,0,0,1,693.6,452.3Zm40.95,5.92a14.15,14.15,0,0,0-5.78-5.22,17.28,17.28,0,0,0-7.81-1.82,16.94,16.94,0,0,0-7.71,1.77,14.28,14.28,0,0,0-7.92,13.24,15,15,0,0,0,2.19,8.16,14.74,14.74,0,0,0,5.78,5.36,16.39,16.39,0,0,0,7.66,1.86,17.27,17.27,0,0,0,7.81-1.81,14.24,14.24,0,0,0,5.78-5.23,16.61,16.61,0,0,0,0-16.31Z" transform="translate(-115.89 -423.22)"/><path class="cls-1" d="M816.45,445.64Q823,451.46,823,461.9v22.28c0,4.43-4.12,8-9.21,8H808V463.67q0-6.15-3.53-9.46t-9.64-3.31q-6.21,0-9.79,3.31t-3.59,9.46v20.51c0,4.43-4.12,8-9.21,8h-5.78V448.57c0-4.43,4.13-8,9.21-8h5.78V447a20.43,20.43,0,0,1,7.66-5.27,26.72,26.72,0,0,1,10.22-1.91Q809.93,439.81,816.45,445.64Z" transform="translate(-115.89 -423.22)"/><path class="cls-1" d="M872.12,442a21,21,0,0,1,7.92,5.92v-7.37h5.89c5.08,0,9.2,3.59,9.2,8v44a24.72,24.72,0,0,1-3.32,12.82,23.17,23.17,0,0,1-9.95,9,35.66,35.66,0,0,1-16.06,3.31q-12.63,0-20.71-5.13a19.49,19.49,0,0,1-7.74-8.65c-1.12-2.58,1.19-5.33,4.36-5.33h9.1a10,10,0,0,0,5.09,5.64,19.75,19.75,0,0,0,9.47,2.1q6.52,0,10.6-3.41t4.07-10.3v-8a22.25,22.25,0,0,1-8,6.06A26.75,26.75,0,0,1,860.45,493a28.34,28.34,0,0,1-13.71-3.36,24.81,24.81,0,0,1-9.79-9.46,27.2,27.2,0,0,1-3.59-14A26.76,26.76,0,0,1,837,452.3a24.45,24.45,0,0,1,9.74-9.32,28.85,28.85,0,0,1,13.76-3.26A28.06,28.06,0,0,1,872.12,442Zm5.78,16.22a14.21,14.21,0,0,0-5.78-5.22,17.32,17.32,0,0,0-7.82-1.82,17,17,0,0,0-7.71,1.77,14.33,14.33,0,0,0-7.92,13.24,15,15,0,0,0,2.2,8.16,14.67,14.67,0,0,0,5.78,5.36,16.37,16.37,0,0,0,7.65,1.86,17.31,17.31,0,0,0,7.82-1.81,14.31,14.31,0,0,0,5.78-5.23,16.61,16.61,0,0,0,0-16.31Z" transform="translate(-115.89 -423.22)"/><path class="cls-1" d="M960.31,470.29H921.15a12.18,12.18,0,0,0,4.49,8.77,15.12,15.12,0,0,0,9.75,3.16q8.34,0,11.88-6.24h9c3.65,0,5.87,3.54,3.87,6.2a25.92,25.92,0,0,1-6.57,6.06q-7.27,4.8-17.87,4.8a34.58,34.58,0,0,1-15.36-3.31,25.19,25.19,0,0,1-10.6-9.37,25.7,25.7,0,0,1-3.8-14,26.19,26.19,0,0,1,3.74-14.08A24.7,24.7,0,0,1,920.18,443a38.2,38.2,0,0,1,30.68-.09,23.82,23.82,0,0,1,14.07,22.37c0,.37,0,.74,0,1.1A4.37,4.37,0,0,1,960.31,470.29Zm-10.9-8.76a9.83,9.83,0,0,0-4.17-8.06,16.24,16.24,0,0,0-10-3,14.91,14.91,0,0,0-9.37,2.93,12.43,12.43,0,0,0-4.65,8.16Z" transform="translate(-115.89 -423.22)"/><path class="cls-2" d="M168.78,540.49v12.07H183.9v3.89H168.78v12.44h16.91v3.89H163.36V536.6h22.33v3.89Z" transform="translate(-115.89 -423.22)"/><path class="cls-2" d="M205.81,550.83a13.75,13.75,0,0,1,5.57-5.11,17.15,17.15,0,0,1,7.94-1.81,16.54,16.54,0,0,1,7.09,1.53,12.16,12.16,0,0,1,5,4v-15h5.48v38.36h-5.48v-5.34a12,12,0,0,1-4.76,4.18,16,16,0,0,1-7.38,1.63,16.59,16.59,0,0,1-7.89-1.87,14,14,0,0,1-5.57-5.23,14.63,14.63,0,0,1-2-7.68A14.27,14.27,0,0,1,205.81,550.83Zm24.11,2.1a9.86,9.86,0,0,0-4-3.66,12.85,12.85,0,0,0-11.1,0,9.7,9.7,0,0,0-4,3.63,10.33,10.33,0,0,0-1.49,5.59,10.62,10.62,0,0,0,1.49,5.68,9.82,9.82,0,0,0,4,3.68,12,12,0,0,0,5.54,1.27,12.15,12.15,0,0,0,5.56-1.27,9.78,9.78,0,0,0,4-3.68,10.51,10.51,0,0,0,1.49-5.62A10.36,10.36,0,0,0,229.92,552.93Z" transform="translate(-115.89 -423.22)"/><path class="cls-2" d="M286.89,544.37v28.41h-5.41v-4.2a10.21,10.21,0,0,1-4.32,3.4,15,15,0,0,1-6.1,1.22,16.4,16.4,0,0,1-6.85-1.38,10.86,10.86,0,0,1-4.79-4.12,12.17,12.17,0,0,1-1.76-6.69V544.37H263v16a8.36,8.36,0,0,0,2.44,6.46,9.46,9.46,0,0,0,6.67,2.25,9.67,9.67,0,0,0,6.85-2.33c1.66-1.56,2.5-3.82,2.5-6.79V544.37Z" transform="translate(-115.89 -423.22)"/><path class="cls-2" d="M308,550.83a13.63,13.63,0,0,1,5.62-5.11,18.11,18.11,0,0,1,8.25-1.81,17.77,17.77,0,0,1,9.91,2.54,11.92,11.92,0,0,1,5.15,7h-5.83a7.39,7.39,0,0,0-3.25-4.1,11.1,11.1,0,0,0-6-1.5,10.29,10.29,0,0,0-7.5,2.77q-2.86,2.77-2.86,7.86t2.86,7.93a10.27,10.27,0,0,0,7.5,2.8,11.33,11.33,0,0,0,6-1.45,7.46,7.46,0,0,0,3.28-4.15h5.83a12.49,12.49,0,0,1-5.24,7,17.3,17.3,0,0,1-9.82,2.62,18.11,18.11,0,0,1-8.25-1.82A13.61,13.61,0,0,1,308,566.3a14.61,14.61,0,0,1-2-7.77A14.39,14.39,0,0,1,308,550.83Z" transform="translate(-115.89 -423.22)"/><path class="cls-2" d="M356,550.83a13.75,13.75,0,0,1,5.57-5.11,17,17,0,0,1,7.89-1.81,16.25,16.25,0,0,1,7.44,1.6,11.68,11.68,0,0,1,4.7,4v-5.19h5.48v28.41h-5.48v-5.29a12.11,12.11,0,0,1-4.79,4.13,16.18,16.18,0,0,1-7.41,1.63,16.41,16.41,0,0,1-7.86-1.87,14,14,0,0,1-5.54-5.23,14.63,14.63,0,0,1-2-7.68A14.27,14.27,0,0,1,356,550.83Zm24.11,2.1a9.86,9.86,0,0,0-4-3.66,12.85,12.85,0,0,0-11.1,0,9.7,9.7,0,0,0-4,3.63,10.33,10.33,0,0,0-1.49,5.59,10.62,10.62,0,0,0,1.49,5.68,9.82,9.82,0,0,0,4,3.68,12,12,0,0,0,5.54,1.27,12.15,12.15,0,0,0,5.56-1.27,9.78,9.78,0,0,0,4-3.68,10.51,10.51,0,0,0,1.49-5.62A10.36,10.36,0,0,0,380.12,552.93Z" transform="translate(-115.89 -423.22)"/><path class="cls-2" d="M414.77,548.26V565a3.66,3.66,0,0,0,1,2.92,5.47,5.47,0,0,0,3.51.86h4v4H418.4q-4.53,0-6.79-1.81c-1.5-1.21-2.26-3.2-2.26-6V548.26h-4.23v-3.89h4.23v-7.15h5.42v7.15h8.51v3.89Z" transform="translate(-115.89 -423.22)"/><path class="cls-2" d="M441.91,538.83a3,3,0,0,1,0-4.57,3.87,3.87,0,0,1,2.62-.93,3.64,3.64,0,0,1,2.53.93,3,3,0,0,1,0,4.57,3.64,3.64,0,0,1-2.53.93A3.87,3.87,0,0,1,441.91,538.83Zm5.24,5.54v28.41h-5.41V544.37Z" transform="translate(-115.89 -423.22)"/><path class="cls-2" d="M474.21,571.43a13.91,13.91,0,0,1-5.83-5.15,14.21,14.21,0,0,1-2.12-7.75,13.8,13.8,0,0,1,2.18-7.7,14.1,14.1,0,0,1,5.92-5.13,20.58,20.58,0,0,1,16.79,0,14.23,14.23,0,0,1,5.92,5.1,13.77,13.77,0,0,1,2.17,7.73,13.63,13.63,0,0,1-2.23,7.75,14.68,14.68,0,0,1-6,5.15,19.41,19.41,0,0,1-8.45,1.82A18.7,18.7,0,0,1,474.21,571.43ZM488,567.91a9.89,9.89,0,0,0,4.14-3.58,10.29,10.29,0,0,0,1.58-5.8,10.45,10.45,0,0,0-1.55-5.81,9.57,9.57,0,0,0-4.05-3.55,13.19,13.19,0,0,0-10.86,0,9.23,9.23,0,0,0-4,3.55,10.68,10.68,0,0,0-1.49,5.81,11,11,0,0,0,1.46,5.85,9,9,0,0,0,3.9,3.55,12.2,12.2,0,0,0,5.36,1.17A12.85,12.85,0,0,0,488,567.91Z" transform="translate(-115.89 -423.22)"/><path class="cls-2" d="M543.83,547q3.69,3.13,3.7,9v16.74h-5.36V556.71a8.43,8.43,0,0,0-2.44-6.5,9.42,9.42,0,0,0-6.67-2.26,9.7,9.7,0,0,0-6.82,2.33c-1.68,1.56-2.53,3.82-2.53,6.79v15.71h-5.42V544.37h5.42v4a10.37,10.37,0,0,1,4.38-3.37,15.16,15.16,0,0,1,6.1-1.2A14.37,14.37,0,0,1,543.83,547Z" transform="translate(-115.89 -423.22)"/><path class="cls-2" d="M620.3,554.72q-3.54,3-10.8,3h-8v15.08H596.1V536.65h13.4q7,0,10.68,3a9.72,9.72,0,0,1,.12,15.12Zm-4.13-2.62a5.88,5.88,0,0,0,2.14-4.88q0-6.68-8.81-6.68h-8v13.27h8C612.51,553.81,614.74,553.24,616.17,552.1Z" transform="translate(-115.89 -423.22)"/><path class="cls-2" d="M652,545.2a14.12,14.12,0,0,1,6.46-1.35v4.88H657q-9.11,0-9.1,8.6v15.45h-5.42V544.37h5.42V549A9.69,9.69,0,0,1,652,545.2Z" transform="translate(-115.89 -423.22)"/><path class="cls-2" d="M682.51,571.43a14,14,0,0,1-5.83-5.15,14.2,14.2,0,0,1-2.11-7.75,13.79,13.79,0,0,1,2.17-7.7,14.16,14.16,0,0,1,5.92-5.13,20.58,20.58,0,0,1,16.79,0,14.26,14.26,0,0,1,5.93,5.1,13.85,13.85,0,0,1,2.17,7.73,13.71,13.71,0,0,1-2.23,7.75,14.71,14.71,0,0,1-6.05,5.15,19.38,19.38,0,0,1-8.45,1.82A18.7,18.7,0,0,1,682.51,571.43Zm13.79-3.52a9.93,9.93,0,0,0,4.13-3.58,10.21,10.21,0,0,0,1.58-5.8,10.37,10.37,0,0,0-1.55-5.81,9.57,9.57,0,0,0-4.05-3.55,13.19,13.19,0,0,0-10.86,0,9.23,9.23,0,0,0-4,3.55,10.77,10.77,0,0,0-1.49,5.81,11,11,0,0,0,1.46,5.85,9,9,0,0,0,3.9,3.55,12.23,12.23,0,0,0,5.36,1.17A12.92,12.92,0,0,0,696.3,567.91Z" transform="translate(-115.89 -423.22)"/><path class="cls-2" d="M747.46,545.51a11.68,11.68,0,0,1,4.74,4v-5.19h5.47v29a12.47,12.47,0,0,1-7.35,11.67,18.75,18.75,0,0,1-8.24,1.71,20,20,0,0,1-10.72-2.65,10.2,10.2,0,0,1-5.06-7.2h5.36a7.58,7.58,0,0,0,3.69,4.17,13.4,13.4,0,0,0,6.73,1.58,10.81,10.81,0,0,0,7.29-2.43,8.58,8.58,0,0,0,2.83-6.85v-6a12.32,12.32,0,0,1-4.77,4.15,15.57,15.57,0,0,1-7.38,1.66,16.65,16.65,0,0,1-7.89-1.87,13.94,13.94,0,0,1-5.56-5.23,14.64,14.64,0,0,1-2-7.68,14.27,14.27,0,0,1,2-7.64,13.72,13.72,0,0,1,5.56-5.11,17.09,17.09,0,0,1,7.89-1.81A16.24,16.24,0,0,1,747.46,545.51Zm3.25,7.42a9.86,9.86,0,0,0-4-3.66,12.85,12.85,0,0,0-11.1,0,9.7,9.7,0,0,0-4,3.63,10.33,10.33,0,0,0-1.49,5.59,10.62,10.62,0,0,0,1.49,5.68,9.82,9.82,0,0,0,4,3.68,12,12,0,0,0,5.53,1.27,12.2,12.2,0,0,0,5.57-1.27,9.78,9.78,0,0,0,4-3.68,10.51,10.51,0,0,0,1.49-5.62A10.36,10.36,0,0,0,750.71,552.93Z" transform="translate(-115.89 -423.22)"/><path class="cls-2" d="M788.24,545.2a14.12,14.12,0,0,1,6.46-1.35v4.88h-1.43q-9.1,0-9.1,8.6v15.45h-5.42V544.37h5.42V549A9.69,9.69,0,0,1,788.24,545.2Z" transform="translate(-115.89 -423.22)"/><path class="cls-2" d="M812.86,550.83a13.69,13.69,0,0,1,5.57-5.11,17,17,0,0,1,7.88-1.81,16.27,16.27,0,0,1,7.45,1.6,11.68,11.68,0,0,1,4.7,4v-5.19h5.47v28.41h-5.47v-5.29a12.11,12.11,0,0,1-4.79,4.13,16.19,16.19,0,0,1-7.42,1.63,16.4,16.4,0,0,1-7.85-1.87,14,14,0,0,1-5.54-5.23,14.64,14.64,0,0,1-2-7.68A14.27,14.27,0,0,1,812.86,550.83Zm24.11,2.1a9.86,9.86,0,0,0-4-3.66,12.85,12.85,0,0,0-11.1,0,9.7,9.7,0,0,0-4,3.63,10.33,10.33,0,0,0-1.49,5.59,10.62,10.62,0,0,0,1.49,5.68,9.82,9.82,0,0,0,4,3.68,12,12,0,0,0,5.53,1.27,12.2,12.2,0,0,0,5.57-1.27,9.78,9.78,0,0,0,4-3.68,10.51,10.51,0,0,0,1.49-5.62A10.36,10.36,0,0,0,837,552.93Z" transform="translate(-115.89 -423.22)"/><path class="cls-2" d="M911,545.23a10.74,10.74,0,0,1,4.7,4.12,12.33,12.33,0,0,1,1.73,6.69v16.74H912.1V556.71a8.45,8.45,0,0,0-2.41-6.5,9.14,9.14,0,0,0-6.52-2.26,9.42,9.42,0,0,0-6.73,2.36c-1.66,1.57-2.5,3.84-2.5,6.82v15.65h-5.36V556.71a8.45,8.45,0,0,0-2.41-6.5,9.11,9.11,0,0,0-6.51-2.26,9.42,9.42,0,0,0-6.73,2.36q-2.5,2.36-2.5,6.82v15.65H865V544.37h5.42v4.1a10.25,10.25,0,0,1,4.31-3.42,14.63,14.63,0,0,1,6-1.2,15.78,15.78,0,0,1,7.26,1.61,10.38,10.38,0,0,1,4.7,4.72,9.85,9.85,0,0,1,4.53-4.67,14.9,14.9,0,0,1,7-1.66A16,16,0,0,1,911,545.23Z" transform="translate(-115.89 -423.22)"/><path class="cls-3" d="M429.31,624.82c.54.06,1.49.15,2.43.28.37,0,.53-.06.63-.44a20.05,20.05,0,0,1,1.62-4.12c.18-.34.09-.5-.17-.71-.88-.68-1.73-1.39-2.6-2.07a.83.83,0,0,1-.19-1.25,31.82,31.82,0,0,1,1.83-2.64.79.79,0,0,1,1.25-.23c.84.61,1.72,1.15,2.56,1.77.37.27.61.34,1-.07a16.69,16.69,0,0,1,3.13-2.75.54.54,0,0,0,.22-.82c-.47-1-.87-2-1.33-3a.85.85,0,0,1,.43-1.25l2.75-1.41a.81.81,0,0,1,1.25.45c.48,1,1,1.89,1.49,2.85.18.36.35.48.76.33a16.3,16.3,0,0,1,4.14-1c.44,0,.51-.29.52-.67,0-1.08.12-2.16.16-3.24,0-.64.31-.89.91-.92,1.07-.06,2.14,0,3.2.07a.75.75,0,0,1,.8.87c0,1.13.05,2.26.05,3.39,0,.4.12.56.49.62a17.67,17.67,0,0,1,4.17,1.15c.32.13.48.06.65-.25.55-1,1.14-1.93,1.69-2.9a.78.78,0,0,1,1.23-.34l2.69,1.52a.82.82,0,0,1,.38,1.25c-.49,1-.94,2-1.44,3-.19.37-.17.57.17.83a18.33,18.33,0,0,1,3.13,3c.27.32.43.3.74.09.88-.58,1.79-1.11,2.68-1.69a.83.83,0,0,1,1.35.28l1.65,2.58a.89.89,0,0,1-.28,1.4c-.85.59-1.65,1.25-2.5,1.83-.36.25-.44.44-.24.86a18.28,18.28,0,0,1,1.39,4.07c.1.44.31.5.69.47,1.09-.08,2.18-.11,3.27-.19.53,0,.77.22.86.72.18,1.12.27,2.24.34,3.37a.78.78,0,0,1-.74.93c-1.09.15-2.17.34-3.25.47-.37.05-.52.15-.53.56a19.31,19.31,0,0,1-.59,4.35.53.53,0,0,0,.37.75c1,.41,1.91.88,2.87,1.31a.87.87,0,0,1,.53,1.26c-.35,1-.73,2-1.14,2.93a.83.83,0,0,1-1.22.55c-1-.4-2.06-.75-3.07-1.16-.31-.12-.44-.08-.6.21a19.75,19.75,0,0,1-2.56,3.69.45.45,0,0,0,0,.71c.68.85,1.32,1.74,2,2.6a.91.91,0,0,1-.13,1.42c-.74.7-1.51,1.36-2.29,2a.82.82,0,0,1-1.33-.1c-.69-.81-1.43-1.57-2.11-2.4-.29-.35-.49-.36-.85-.11a18.12,18.12,0,0,1-3.74,1.92c-.41.15-.46.32-.37.73.22,1,.39,2.08.57,3.12.15.82,0,1-.76,1.24-.94.24-1.9.45-2.85.68a.84.84,0,0,1-1.18-.73c-.24-1.08-.54-2.14-.82-3.21-.06-.24-.07-.5-.47-.45a16.45,16.45,0,0,1-4.32-.06c-.48-.06-.63.11-.75.56-.28,1-.63,2.06-.92,3.1a.76.76,0,0,1-1.05.62c-1-.28-2.07-.56-3.1-.86a.81.81,0,0,1-.6-1.1c.26-1.1.48-2.2.75-3.3.08-.34,0-.51-.32-.65a19.73,19.73,0,0,1-3.84-2.19c-.25-.19-.39-.18-.62.07-.75.82-1.55,1.6-2.31,2.42a.82.82,0,0,1-1.33,0c-.77-.7-1.53-1.4-2.25-2.16a.86.86,0,0,1-.07-1.32c.71-.83,1.39-1.68,2.1-2.51.23-.27.32-.44.05-.77a19,19,0,0,1-2.38-3.72c-.18-.38-.37-.39-.71-.27-1,.35-2.05.65-3.06,1a.8.8,0,0,1-1.15-.56c-.39-1-.75-2-1.05-3.05a.82.82,0,0,1,.5-1.15c1-.4,2-.84,3.05-1.25.32-.12.47-.25.38-.67a17.73,17.73,0,0,1-.43-4.36c0-.44-.14-.57-.54-.64-1.05-.17-2.1-.4-3.15-.58-.61-.1-.81-.43-.75-1a26,26,0,0,1,.36-2.79C427.68,624.72,427.68,624.72,429.31,624.82Z" transform="translate(-115.89 -423.22)"/><path class="cls-4" d="M493.43,627.24a3.69,3.69,0,0,1,6.12.62,3.93,3.93,0,0,1,2.43-1.79c2.91-.56,5.53.58,5.76,4.36.13,2.15,0,4.33.06,6.49,0,.35-.11.46-.44.45a17,17,0,0,0-1.75,0c-.44,0-.54-.14-.53-.57,0-1.7,0-3.41,0-5.12a6.89,6.89,0,0,0-.16-1.5,1.86,1.86,0,0,0-1.53-1.58,2.09,2.09,0,0,0-2.14.91,3.56,3.56,0,0,0-.59,2.18c0,1.71,0,3.41,0,5.12,0,.45-.11.59-.54.56-.7,0-1.6.23-2-.13s-.12-1.35-.13-2.06c0-1.3,0-2.6,0-3.9,0-1.57-.84-2.66-2-2.74a2.27,2.27,0,0,0-2.41,2.33c-.1,1.73-.05,3.46-.06,5.19,0,1.3,0,1.3-1.29,1.3-1.44,0-1.44,0-1.44-1.48,0-3,0-6,0-9,0-.77.23-1,.89-.86a4.42,4.42,0,0,0,.63,0C493.26,626.07,493.26,626.07,493.43,627.24Z" transform="translate(-115.89 -423.22)"/><path class="cls-5" d="M670.49,626.07l-3.68,11a.43.43,0,0,1-.51.37h-.21c-.84,0-1.84.25-2.46-.13s-.67-1.51-.93-2.33c-.45-1.43-.82-2.89-1.27-4.47-.13.49-.25.86-.33,1.24-.41,1.77-1,3.49-1.57,5.22a.58.58,0,0,1-.65.48c-.74,0-1.49,0-2.23,0a.54.54,0,0,1-.6-.45c-1.17-3.5-2.35-7-3.54-10.47-.13-.38,0-.46.32-.45a18.31,18.31,0,0,0,2,0c.48,0,.68.14.82.62.64,2.28,1.32,4.55,2,6.82.07.23.15.45.24.74a1.36,1.36,0,0,0,.31-.73c.65-2.28,1.3-4.56,1.91-6.85a.66.66,0,0,1,.76-.6c1.8,0,1.8,0,2.32,1.8.6,2.12,1.19,4.25,1.79,6.38.3-.14.26-.45.33-.68.69-2.29,1.37-4.58,2-6.89.13-.47.33-.64.82-.61C668.86,626.11,669.63,626.07,670.49,626.07Z" transform="translate(-115.89 -423.22)"/><path class="cls-5" d="M694.1,632.34c0,1.62,0,3,0,4.43,0,.48-.11.64-.57.6a13.45,13.45,0,0,0-1.68,0c-.38,0-.47-.12-.46-.49q0-7.47,0-14.94c0-.4.1-.56.5-.54a10.82,10.82,0,0,0,1.61,0c.51,0,.61.17.6.65,0,2.53,0,5.06,0,7.58v.91a22.62,22.62,0,0,0,2-2.54,3.51,3.51,0,0,1,4-1.91,3.84,3.84,0,0,0,.76,0c.08.37-.2.5-.35.68-1.2,1.41-2.4,2.81-3.63,4.19-.31.33-.3.53,0,.86,1.47,1.64,2.92,3.3,4.37,5,.12.14.35.25.26.46s-.33.11-.5.11a6.85,6.85,0,0,1-2.69-.1c-.74-.33-1.2-1.29-1.78-2Z" transform="translate(-115.89 -423.22)"/><path class="cls-5" d="M623.14,627.42c.28,0,.42-.29.62-.44a4.49,4.49,0,0,1,7.41,3,57.26,57.26,0,0,1,.16,7.06c0,.25-.1.35-.33.32h-.07c-.77,0-1.72.25-2.24-.13s-.12-1.39-.13-2.13c0-1.22,0-2.45,0-3.68,0-1.8-1-2.94-2.56-2.94a2.87,2.87,0,0,0-2.77,2.93c0,1.8,0,3.6,0,5.41,0,.45-.12.59-.55.55-.71-.07-1.66.31-2.07-.16s-.11-1.37-.11-2.09c0-2.81,0-5.62,0-8.44,0-.44.09-.68.57-.61a2.67,2.67,0,0,0,.49,0C622.9,626.07,622.9,626.07,623.14,627.42Z" transform="translate(-115.89 -423.22)"/><path class="cls-6" d="M572,633.07c0,1.23,0,2.45,0,3.68,0,.45-.09.67-.57.62-.71-.08-1.62.3-2.08-.17s-.11-1.32-.11-2c0-1.92,0-3.85,0-5.77,0-.51-.09-.72-.65-.71-1.36,0-1.37,0-1.36-1.43,0-1.2-.16-1,1-1,1,0,.94,0,1-1a4,4,0,0,1,2.07-3.67,4.7,4.7,0,0,1,4.62.2c.25.14.35.3.17.57,0,.08-.08.17-.13.26a3.76,3.76,0,0,1-.65,1.26c-.39.35-.79-.24-1.23-.32a1.64,1.64,0,0,0-1.66.46,2.51,2.51,0,0,0-.42,2c0,.29.26.22.43.22.73,0,1.45,0,2.17,0,.38,0,.52.1.53.52.07,2,.09,2-1.79,2-1.36,0-1.36,0-1.36,1.39Z" transform="translate(-115.89 -423.22)"/><path class="cls-7" d="M535.84,631.74c0-2.33.77-4.3,2.92-5.31a5.7,5.7,0,0,1,6.27.5c.48.36.63.67.08,1.07a1,1,0,0,0-.19.21c-.31.32-.57.76-.94.95s-.73-.34-1.13-.49a3.08,3.08,0,0,0-3.73,1.1,3.75,3.75,0,0,0,.29,4.35,3.24,3.24,0,0,0,4.06.34c.52-.36.77-.29,1.11.15a6.6,6.6,0,0,0,.69.71c.64.64.62.61-.1,1.23-2.45,2.07-7.95,1.58-9.09-2.82A7.43,7.43,0,0,1,535.84,631.74Z" transform="translate(-115.89 -423.22)"/><path class="cls-6" d="M595.1,637.7a5.33,5.33,0,0,1-5.28-3.39,6.77,6.77,0,0,1,1.31-7.09,6,6,0,0,1,7.61-.17c.32.28.39.51,0,.8-.1.1-.2.2-.29.31-.59.73-1,1.28-2.16.57a2.78,2.78,0,0,0-3.69,1.07,3.63,3.63,0,0,0,.3,4.27,3.13,3.13,0,0,0,4,.41c.55-.39.82-.29,1.17.17a6.75,6.75,0,0,0,.65.66c.64.66.64.66-.06,1.2A5.28,5.28,0,0,1,595.1,637.7Z" transform="translate(-115.89 -423.22)"/><path class="cls-7" d="M547.67,631.4c0-.72,0-1.45,0-2.17,0-.51-.08-.79-.64-.68a1.31,1.31,0,0,1-.28,0c-1.15,0-1.15,0-1.12-1.23s0-1.27,1.21-1.2c.68,0,.93-.18.82-.87a7.21,7.21,0,0,1,0-.93c0-1.11,0-1.11,1-1.23.23,0,.47,0,.7-.05,1-.11,1-.11,1,1,0,.69-.3,1.6.14,2s1.23.1,1.88.11c1,0,1,0,1,1,0,1.42,0,1.42-1.37,1.42-1.67,0-1.67,0-1.67,1.69,0,1,0,2,0,3,0,1.44.76,2.08,2.06,1.64.61-.21.77,0,.88.5,0,.24.13.46.2.69.35,1.11.35,1.1-.79,1.35a5.43,5.43,0,0,1-2.16.07c-1.82-.32-2.83-1.66-2.9-3.82C547.65,632.89,547.67,632.14,547.67,631.4Z" transform="translate(-115.89 -423.22)"/><path class="cls-5" d="M648.93,631.27v2c0,1.41.79,2,2.09,1.61.54-.18.74-.07.84.46a3.47,3.47,0,0,0,.16.55c.42,1.31.42,1.3-.94,1.57a5.65,5.65,0,0,1-1.74.07,3.33,3.33,0,0,1-3.06-3.27c-.15-1.65,0-3.31,0-5,0-.5-.07-.72-.64-.7-1.41,0-1.41,0-1.41-1.43,0-.21,0-.43,0-.65s.1-.39.36-.36h.14c.49,0,1.16.16,1.41-.1s.11-1,.12-1.59c0-1.21,0-1.22,1.16-1.33l1.51-.1c0,.52,0,1,0,1.57,0,1.55,0,1.55,1.52,1.55s1.45,0,1.5,1.52c0,.73-.13,1-.89,1-.55-.07-1.12,0-1.67,0-.38,0-.47.13-.46.5C649,629.78,648.93,630.53,648.93,631.27Z" transform="translate(-115.89 -423.22)"/><path class="cls-5" d="M685,627.22a4.15,4.15,0,0,1,5.4-.74c.39.26.52.5.23.91a2.25,2.25,0,0,0-.19.38,4.15,4.15,0,0,1-.71,1.3c-.43.37-.78-.29-1.22-.4a2.68,2.68,0,0,0-3.52,2.81c0,1.77,0,3.55,0,5.33,0,.44-.11.59-.54.56-.7,0-1.6.23-2-.13s-.13-1.34-.14-2c0-2.81,0-5.63,0-8.44,0-.55.14-.73.66-.66a5.87,5.87,0,0,0,.84,0C684.81,626.1,684.81,626.1,685,627.22Z" transform="translate(-115.89 -423.22)"/><path class="cls-6" d="M579,627.2a4.08,4.08,0,0,1,5.36-.73c.38.25.56.48.26.9a2.81,2.81,0,0,0-.19.39,4.17,4.17,0,0,1-.72,1.3c-.43.37-.79-.28-1.23-.39a2.67,2.67,0,0,0-3.5,2.82c0,1.76,0,3.51,0,5.27,0,.46-.11.66-.58.61-.69-.08-1.58.3-2-.16s-.11-1.33-.11-2c0-2.74,0-5.48,0-8.22,0-.77.23-1,.9-.88a2.68,2.68,0,0,0,.49,0C578.66,626.1,578.66,626.1,579,627.2Z" transform="translate(-115.89 -423.22)"/><path class="cls-7" d="M488.76,631.73c0,1.68,0,3.37,0,5,0,.47-.12.63-.58.59-.69,0-1.6.23-2-.13s-.13-1.35-.14-2.07c0-2.81,0-5.62,0-8.43,0-.55.14-.73.67-.68a7.17,7.17,0,0,0,1.39,0c.52-.05.72.09.7.69C488.73,628.41,488.76,630.07,488.76,631.73Z" transform="translate(-115.89 -423.22)"/><path class="cls-6" d="M585.34,631.65c0-1.65,0-3.31,0-5,0-.47.12-.66.58-.61.69.08,1.56-.29,2,.17s.1,1.28.11,2c0,2.83,0,5.67,0,8.51,0,.55-.15.73-.66.67-.67-.08-1.55.3-1.93-.16s-.11-1.28-.12-2C585.33,634.06,585.34,632.86,585.34,631.65Z" transform="translate(-115.89 -423.22)"/><path class="cls-8" d="M618.77,634.14a2.75,2.75,0,0,1-2.86,2.87,2.92,2.92,0,1,1,2.86-2.87Z" transform="translate(-115.89 -423.22)"/><path class="cls-7" d="M487.43,624.59A1.56,1.56,0,0,1,485.8,623a1.53,1.53,0,0,1,1.57-1.7,1.54,1.54,0,0,1,1.64,1.56A1.58,1.58,0,0,1,487.43,624.59Z" transform="translate(-115.89 -423.22)"/><path class="cls-6" d="M588.29,623a1.47,1.47,0,0,1-1.59,1.58,1.63,1.63,0,0,1,0-3.25A1.5,1.5,0,0,1,588.29,623Z" transform="translate(-115.89 -423.22)"/><path class="cls-9" d="M460.9,625.79c.06-.72.12-1.34.14-1.95,0-.36.15-.45.47-.44,1.09,0,2.19,0,3.28,0,.47,0,.53.2.52.6,0,1.93,0,3.85,0,5.78,0,3.79,0,7.59,0,11.39,0,.55-.15.7-.67.68-1-.05-2,0-3.07,0-.35,0-.49-.1-.5-.48,0-.64-.1-1.27-.16-1.94-2.52,3.14-5.7,3.56-9.16,2.42s-5.15-3.81-5.64-7.41a12.21,12.21,0,0,1,.41-5.41,8.23,8.23,0,0,1,7.19-5.94,8.7,8.7,0,0,1,3.52.16A6.47,6.47,0,0,1,460.9,625.79Z" transform="translate(-115.89 -423.22)"/><path class="cls-9" d="M440.12,632.61c0-2.89,0-5.77,0-8.66,0-.46.09-.62.57-.61,1.11,0,2.23,0,3.35,0,.38,0,.52.09.52.51q0,8.7,0,17.39c0,.51-.19.59-.62.58-1.07,0-2.14,0-3.21,0-.49,0-.62-.14-.61-.65C440.13,638.33,440.12,635.47,440.12,632.61Z" transform="translate(-115.89 -423.22)"/><path class="cls-9" d="M442.33,620.93a2.49,2.49,0,0,1-2.63-2.62,2.63,2.63,0,1,1,2.63,2.62Z" transform="translate(-115.89 -423.22)"/><path class="cls-10" d="M467.35,632.94a9.38,9.38,0,0,1,1,.41c.28.14.33.39,0,.53-.59.27-1.21.48-1.82.71-.11,0-.24,0-.26-.12a.31.31,0,0,1,.2-.4l1.13-.38c-.21-.29-.52-.26-.76-.39s-.54,0-.55-.34.32-.28.52-.36l.92-.37-1.24-.42a.29.29,0,0,1-.22-.38c.07-.26.26-.14.4-.09.5.17,1,.36,1.5.56.16.06.38.1.36.36s-.19.26-.33.32Z" transform="translate(-115.89 -423.22)"/><path class="cls-11" d="M467.43,639.2h-.07c-1,0-1.37-.54-1.06-1.55,0-.13.1-.22.23-.23a.23.23,0,0,1,.27.25c0,.22,0,.43,0,.65s0,.36.22.35.16-.23.2-.38-.2-.77.2-.77.15.53.22.81,0,.35.24.33.16-.17.2-.3c.09-.31-.23-.9.23-.89s.24.61.25.94C468.61,639.36,468.65,639.18,467.43,639.2Z" transform="translate(-115.89 -423.22)"/><path class="cls-12" d="M467.4,640.29c-.2,0-.4,0-.6,0s-.48.11-.47-.23.26-.22.43-.22h1.46c.11,0,.25,0,.31.1s0,.27-.15.36l-1.19,1h1.12c.16,0,.26.07.26.25a.24.24,0,0,1-.26.26,14.41,14.41,0,0,1-1.74,0c-.42,0-.29-.33-.07-.53s.64-.54,1-.81Z" transform="translate(-115.89 -423.22)"/><path class="cls-13" d="M468.48,625.72c.25.61-.14.77-.37,1s-.32.24-.26.47.25.15.41.16.3,0,.31.2-.16.26-.34.26a11.61,11.61,0,0,1-1.18,0c-.27,0-.73.24-.74-.34s-.17-1.24.55-1.55a.46.46,0,0,1,.52,0C467.81,626.47,468.14,626.22,468.48,625.72Z" transform="translate(-115.89 -423.22)"/><path class="cls-14" d="M468.62,629.57a1.1,1.1,0,0,1-1.11,1.21,1.19,1.19,0,1,1,0-2.37A1.1,1.1,0,0,1,468.62,629.57Z" transform="translate(-115.89 -423.22)"/><path class="cls-15" d="M466.37,623.48c1,.87,1,.87,2.08,0,.1.31.1.31-.61,1.31l.28,0c.19,0,.47-.07.45.28s-.3.24-.49.24h-1.32c-.18,0-.41,0-.44-.22s.23-.29.43-.3l.26,0C466.88,624.3,466.11,624.22,466.37,623.48Z" transform="translate(-115.89 -423.22)"/><path class="cls-16" d="M466.3,636c0-.19,0-.38,0-.57s0-.3.19-.32.31.09.28.29c-.06.45.23.43.52.42h1c.16,0,.26.07.25.26s-.11.2-.24.21-.46,0-.69,0-.94-.23-.91.56c0,.12-.15.17-.27.14s-.17-.15-.17-.28V636Z" transform="translate(-115.89 -423.22)"/><path class="cls-4" d="M520.17,627.58a5.22,5.22,0,0,0-3.65-1.73,4.48,4.48,0,0,0-3.93,1.65c-.24-1.4-.24-1.4-1.55-1.4a3.51,3.51,0,0,1-.56,0c-.51-.08-.66.12-.65.66,0,4.38,0,8.76,0,13.14,0,.69-.22,1.62.12,2s1.31.09,2,.16c.46,0,.6-.12.59-.6,0-1.71,0-3.42,0-5.22a5.6,5.6,0,0,0,7.72-.33A6.68,6.68,0,0,0,520.17,627.58Zm-4.36,7.33a3.07,3.07,0,0,1-3-3.19,3.08,3.08,0,1,1,3,3.19Z" transform="translate(-115.89 -423.22)"/><path class="cls-4" d="M534.44,627c0-.94,0-.94-.93-.94a4.35,4.35,0,0,0-1.58.07c-.36.14,0,.81-.27,1.17-1.95-1.61-3.51-1.93-5.6-1.17-2.41.88-3.71,3.2-3.45,6.24.19,2.23,1.08,4.05,3.23,4.87a4.86,4.86,0,0,0,5.85-1.28c.26,1.36.26,1.36,1.62,1.36a2.68,2.68,0,0,1,.49,0c.52.08.66-.12.65-.67C534.43,633.48,534.44,630.26,534.44,627Zm-5.9,8.08a3.39,3.39,0,0,1,0-6.78,3.4,3.4,0,0,1,0,6.78Z" transform="translate(-115.89 -423.22)"/><path class="cls-6" d="M566.17,627.51c0-1.41,0-1.41-1.39-1.41-1.19,0-1.19,0-1.32,1.35a4.92,4.92,0,0,0-1.62-1.25c-3.36-1.45-6.94.7-7.44,4.63-.53,4.24,1.93,7.22,6.07,6.83a4.28,4.28,0,0,0,3-1.72c.2,1.42.2,1.42,1.52,1.42a3.47,3.47,0,0,1,.56,0c.54.08.66-.16.65-.69C566.16,633.63,566.17,630.57,566.17,627.51Zm-5.87,7.63a3.42,3.42,0,0,1,0-6.82,3.42,3.42,0,0,1,0,6.82Z" transform="translate(-115.89 -423.22)"/><path class="cls-6" d="M611.36,627.48c0-1.38,0-1.38-1.36-1.38s-1.24,0-1.34,1.23c0,0-.06,0-.1.06a5,5,0,0,0-.81-.78,5.35,5.35,0,0,0-7.86,2.74,7.53,7.53,0,0,0,.17,5.29,5.13,5.13,0,0,0,8.55,1.3c.22,1.42.22,1.42,1.6,1.42a2.08,2.08,0,0,1,.35,0c.61.09.82-.12.81-.81C611.33,633.54,611.36,630.51,611.36,627.48Zm-5.89,7.66a3.42,3.42,0,0,1,0-6.82,3.42,3.42,0,0,1,0,6.82Z" transform="translate(-115.89 -423.22)"/><path class="cls-5" d="M644,631.13c-.11-2.49-1.27-4.31-3.24-5a6.73,6.73,0,0,0-4.32-.08c-3,1-4.5,4.24-3.53,7.65,1.4,4.92,7.72,4.72,10.21,2.37.22-.21.17-.32,0-.5l-1.24-1.26c-.17-.17-.27-.24-.51-.06a4.52,4.52,0,0,1-3.32.8,2.61,2.61,0,0,1-2.5-2.31h7C644.09,632.74,644.09,632.74,644,631.13Zm-3.32-.72H636c-.33,0-.4-.09-.29-.41a2.94,2.94,0,0,1,2.55-1.73,2.7,2.7,0,0,1,2.91,1.37C641.47,630.32,641.42,630.41,640.7,630.41Z" transform="translate(-115.89 -423.22)"/><path class="cls-5" d="M676.13,625.89a5.48,5.48,0,0,0-5.67,5.83c0,3.51,2.31,5.92,5.69,5.91a5.87,5.87,0,0,0,0-11.74Zm0,9.14a3,3,0,0,1-2.94-3.29,3,3,0,0,1,2.94-3.31,3.12,3.12,0,0,1,2.92,3.36A3,3,0,0,1,676.13,635Z" transform="translate(-115.89 -423.22)"/><path class="cls-4" d="M455.65,638.14c-3.07,0-5.2-2.26-5.2-5.51s2.13-5.54,5.25-5.54,5.13,2.29,5.12,5.59S458.69,638.14,455.65,638.14Z" transform="translate(-115.89 -423.22)"/><path class="cls-17" d="M466.77,626.89c0-.18,0-.47.29-.5s.33.25.33.49.06.5-.31.49S466.76,627.17,466.77,626.89Z" transform="translate(-115.89 -423.22)"/><path class="cls-18" d="M467.51,630.3a.69.69,0,0,1-.79-.67.65.65,0,0,1,.68-.74.67.67,0,0,1,.79.7A.66.66,0,0,1,467.51,630.3Z" transform="translate(-115.89 -423.22)"/><text class="cls-19" transform="translate(263.36 210.87) scale(1.15 1)">By</text></svg>